<svg width="54" height="32" viewBox="0 0 54 32" fill="none" xmlns="http://www.w3.org/2000/svg">
<path d="M33.8463 3.38721H20.1578V28.3044H33.8463V3.38721Z" fill="#FF5F00"/>
<path d="M21.0239 15.8466C21.0217 13.4469 21.5586 11.0781 22.5938 8.91967C23.629 6.76119 25.1354 4.86957 26.999 3.38801C24.6912 1.55052 21.9196 0.407821 19.0009 0.0905043C16.0823 -0.226812 13.1344 0.294052 10.4942 1.59359C7.85404 2.89312 5.62805 4.91889 4.0707 7.43933C2.51336 9.95977 1.6875 12.8732 1.6875 15.8466C1.6875 18.82 2.51336 21.7334 4.0707 24.2539C5.62805 26.7743 7.85404 28.8001 10.4942 30.0996C13.1344 31.3992 16.0823 31.92 19.0009 31.6027C21.9196 31.2854 24.6912 30.1427 26.999 28.3052C25.1354 26.8236 23.629 24.932 22.5938 22.7735C21.5586 20.6151 21.0218 18.2463 21.0239 15.8466Z" fill="#EB001B"/>
<path d="M52.3125 15.8466C52.3126 18.82 51.4869 21.7334 49.9296 24.2538C48.3723 26.7743 46.1464 28.8 43.5063 30.0996C40.8661 31.3991 37.9183 31.92 34.9997 31.6027C32.0811 31.2854 29.3096 30.1427 27.0018 28.3052C28.8638 26.8221 30.369 24.9302 31.4041 22.7721C32.4391 20.6139 32.9769 18.2459 32.9769 15.8466C32.9769 13.4473 32.4391 11.0793 31.4041 8.92113C30.369 6.76299 28.8638 4.87107 27.0018 3.38801C29.3096 1.55052 32.0811 0.407812 34.9997 0.0905002C37.9183 -0.226812 40.8661 0.294075 43.5063 1.59362C46.1464 2.89317 48.3723 4.91894 49.9296 7.43938C51.4869 9.95982 52.3126 12.8732 52.3125 15.8466Z" fill="#F79E1B"/>
</svg>
