<svg width="84" height="24" viewBox="0 0 84 24" fill="none" xmlns="http://www.w3.org/2000/svg">
<path fill-rule="evenodd" clip-rule="evenodd" d="M13.3456 2.60325C14.006 2.59949 15.9687 2.43114 16.8 5.10331C17.36 6.90331 18.2521 9.85179 19.4761 13.9488H19.9747C21.2874 9.62945 22.1892 6.68096 22.68 5.10331C23.52 2.40331 25.62 2.60331 26.46 2.60331L32.9408 2.60331V21.8033H26.3354V10.4884H25.8925L22.2103 21.8033H17.2405L13.5584 10.48H13.1154V21.8033H6.51001V2.60331L13.3456 2.60325ZM42.426 2.60331V13.9266H42.953L47.432 4.61554C48.3015 2.76261 50.1546 2.60331 50.1546 2.60331H56.5466V21.8033H49.8033V10.48H49.2763L44.8851 19.7911C44.0157 21.6356 42.0747 21.8033 42.0747 21.8033H35.6827V2.60331H42.426ZM79.8547 11.7273C78.9141 14.2659 75.9601 16.0839 72.6897 16.0839H65.618V21.8033H59.2054V11.7273H79.8547Z" fill="#0F754E"/>
<path fill-rule="evenodd" clip-rule="evenodd" d="M72.999 2.60327H58.8691C59.2054 6.87784 63.0706 10.5372 67.0719 10.5372H80.3003C81.0636 6.98448 78.4357 2.60327 72.999 2.60327Z" fill="url(#paint0_linear_11_242)"/>
<defs>
<linearGradient id="paint0_linear_11_242" x1="2214.95" y1="501.679" x2="58.8691" y2="501.679" gradientUnits="userSpaceOnUse">
<stop stop-color="#1F5CD7"/>
<stop offset="1" stop-color="#02AEFF"/>
</linearGradient>
</defs>
</svg>
