<svg width="19" height="18" viewBox="0 0 19 18" fill="none" xmlns="http://www.w3.org/2000/svg">
<path d="M7.16165 11.8397L10.7944 6.51975H11.5392L7.90645 11.8397H7.16165ZM7.60245 9.38495C7.35418 9.38495 7.13378 9.32415 6.94125 9.20255C6.74872 9.08095 6.59925 8.91121 6.49285 8.69335C6.38645 8.47548 6.33325 8.21962 6.33325 7.92575C6.33325 7.63188 6.38645 7.37602 6.49285 7.15815C6.59925 6.94028 6.74872 6.77055 6.94125 6.64895C7.13378 6.52735 7.35418 6.46655 7.60245 6.46655C7.86085 6.46655 8.08378 6.52735 8.27125 6.64895C8.46378 6.77055 8.61325 6.94028 8.71965 7.15815C8.82605 7.37602 8.87925 7.63188 8.87925 7.92575C8.87925 8.21962 8.82605 8.47548 8.71965 8.69335C8.61325 8.91121 8.46378 9.08095 8.27125 9.20255C8.08378 9.32415 7.86085 9.38495 7.60245 9.38495ZM7.61005 8.85295C7.81272 8.85295 7.96978 8.77442 8.08125 8.61735C8.19778 8.45522 8.25605 8.22468 8.25605 7.92575C8.25605 7.62682 8.19778 7.39882 8.08125 7.24175C7.96978 7.07962 7.81272 6.99855 7.61005 6.99855C7.40738 6.99855 7.24525 7.07962 7.12365 7.24175C7.00712 7.40388 6.94885 7.63188 6.94885 7.92575C6.94885 8.21962 7.00712 8.44762 7.12365 8.60975C7.24525 8.77188 7.40738 8.85295 7.61005 8.85295ZM11.0908 11.8929C10.8426 11.8929 10.6222 11.8321 10.4296 11.7105C10.2371 11.5889 10.0876 11.4192 9.98125 11.2013C9.87485 10.9835 9.82165 10.7276 9.82165 10.4337C9.82165 10.1399 9.87485 9.88401 9.98125 9.66615C10.0876 9.44828 10.2371 9.27855 10.4296 9.15695C10.6222 9.03535 10.8426 8.97455 11.0908 8.97455C11.3492 8.97455 11.5722 9.03535 11.7596 9.15695C11.9522 9.27855 12.1016 9.44828 12.208 9.66615C12.3144 9.88401 12.3676 10.1399 12.3676 10.4337C12.3676 10.7276 12.3144 10.9835 12.208 11.2013C12.1016 11.4192 11.9522 11.5889 11.7596 11.7105C11.5722 11.8321 11.3492 11.8929 11.0908 11.8929ZM11.0908 11.3609C11.2935 11.3609 11.4531 11.2799 11.5696 11.1177C11.6862 10.9556 11.7444 10.7276 11.7444 10.4337C11.7444 10.1399 11.6862 9.91188 11.5696 9.74975C11.4531 9.58761 11.2935 9.50655 11.0908 9.50655C10.8932 9.50655 10.7336 9.58761 10.612 9.74975C10.4955 9.90681 10.4372 10.1348 10.4372 10.4337C10.4372 10.7327 10.4955 10.9632 10.612 11.1253C10.7336 11.2824 10.8932 11.3609 11.0908 11.3609Z" fill="#212121"/>
<path d="M7.69583 2.73639C8.67986 1.71055 10.3201 1.71055 11.3041 2.73639L11.8164 3.27043C12.3154 3.79062 12.9628 4.14406 13.6703 4.28245L14.2265 4.39128C15.7225 4.68392 16.6106 6.2357 16.1051 7.67376L16.5768 7.83956L16.1051 7.67376L16.0469 7.83937C15.7829 8.59056 15.7829 9.40934 16.0469 10.1605L16.1051 10.3261C16.6106 11.7642 15.7225 13.316 14.2265 13.6086L13.6703 13.7175C12.9628 13.8558 12.3154 14.2093 11.8164 14.7295L11.3041 15.2635C10.3201 16.2894 8.67986 16.2894 7.69583 15.2635L7.18356 14.7295C6.68457 14.2093 6.03713 13.8558 5.32971 13.7175L4.77343 13.6086C3.27748 13.316 2.38939 11.7642 2.89485 10.3261L2.95305 10.1605C3.21709 9.40934 3.21709 8.59056 2.95305 7.83936L2.89485 7.67376C2.38939 6.2357 3.27748 4.68392 4.77343 4.39128L5.32971 4.28245C6.03713 4.14406 6.68457 3.79062 7.18356 3.27043L7.69583 2.73639Z" stroke="#212121"/>
</svg>
