<svg width="71" height="36" viewBox="0 0 71 36" fill="none" xmlns="http://www.w3.org/2000/svg">
<g clip-path="url(#clip0_11_248)">
<path d="M0 7.83606L4.31704 15.6286V20.3818L0.00505021 28.159L0 7.83606Z" fill="#5B57A2"/>
<path d="M16.5757 12.7929L20.6209 10.2891L28.8997 10.2812L16.5757 17.9055V12.7929Z" fill="#D90751"/>
<path d="M16.5528 7.7901L16.5757 18.1071L12.2485 15.4221V0L16.5528 7.7901Z" fill="#FAB718"/>
<path d="M28.8997 10.2813L20.6206 10.2891L16.5528 7.7901L12.2485 0L28.8997 10.2813Z" fill="#ED6F26"/>
<path d="M16.5757 28.2021V23.1966L12.2485 20.5626L12.2509 36L16.5757 28.2021Z" fill="#63B22F"/>
<path d="M20.6108 25.7212L4.31674 15.6286L0 7.83606L28.8821 25.711L20.6108 25.7212Z" fill="#1487C9"/>
<path d="M12.2512 36L16.5754 28.2021L20.6105 25.7211L28.8819 25.7109L12.2512 36Z" fill="#017F36"/>
<path d="M0.00500488 28.1589L12.2838 20.5629L8.15575 18.0051L4.31699 20.3817L0.00500488 28.1589Z" fill="#984995"/>
<path d="M61.394 14.046V22.8474H58.2819V16.6734H55.2853V22.8474H52.1732V14.0454H61.394V14.046Z" fill="#F8F8F8"/>
<path fill-rule="evenodd" clip-rule="evenodd" d="M45.7817 23.1622C48.5677 23.1622 50.6365 21.4372 50.6365 18.8221C50.6365 16.291 49.1101 14.6476 46.5592 14.6476C45.3819 14.6476 44.4104 15.0661 43.6788 15.7882C43.8534 14.2957 45.1032 13.2061 46.4792 13.2061C46.7968 13.2061 49.1876 13.201 49.1876 13.201L50.5396 10.5883C50.5396 10.5883 47.538 10.6573 46.1427 10.6573C42.9545 10.7134 40.801 13.6399 40.801 17.1943C40.801 21.3352 42.9013 23.1622 45.7817 23.1622ZM45.7987 16.9618C46.8331 16.9618 47.5502 17.6482 47.5502 18.8218C47.5502 19.8781 46.913 20.7484 45.7987 20.7508C44.7328 20.7508 44.0156 19.9444 44.0156 18.8398C44.0156 17.6659 44.7328 16.9618 45.7987 16.9618Z" fill="#F8F8F8"/>
<path d="M38.268 19.9008C38.268 19.9008 37.533 20.3286 36.4353 20.4096C35.1734 20.4474 34.049 19.6425 34.049 18.2124C34.049 16.8174 35.0412 16.0179 36.4035 16.0179C37.2389 16.0179 38.344 16.6026 38.344 16.6026C38.344 16.6026 39.1526 15.1041 39.5715 14.3547C38.8045 13.7676 37.7828 13.4457 36.5946 13.4457C33.5956 13.4457 31.2728 15.4203 31.2728 18.1947C31.2728 21.0045 33.456 22.9332 36.5946 22.875C37.4718 22.842 38.6821 22.5309 39.4197 22.0524L38.268 19.9008Z" fill="#F8F8F8"/>
</g>
<defs>
<clipPath id="clip0_11_248">
<rect width="71" height="36" fill="white"/>
</clipPath>
</defs>
</svg>
