<svg width="76" height="38" viewBox="0 0 76 38" fill="none" xmlns="http://www.w3.org/2000/svg">
<path d="M33.0758 30.6137H27.0327L30.8096 7.4023H36.8533L33.0758 30.6137ZM21.9488 7.4023L16.1876 23.3673L15.5059 19.9294L15.5065 19.9306L13.4731 9.49222C13.4731 9.49222 13.2272 7.4023 10.6064 7.4023H1.08198L0.970215 7.79533C0.970215 7.79533 3.88281 8.40131 7.2915 10.4484L12.5417 30.6143H18.8382L28.4527 7.4023H21.9488ZM69.4811 30.6137H75.03L70.192 7.40168H65.3342C63.0909 7.40168 62.5445 9.13148 62.5445 9.13148L53.5317 30.6137H59.8312L61.091 27.1659H68.7733L69.4811 30.6137ZM62.8313 22.403L66.0066 13.7168L67.7929 22.403H62.8313ZM54.0042 12.9841L54.8666 7.9996C54.8666 7.9996 52.2054 6.98755 49.4313 6.98755C46.4324 6.98755 39.3108 8.29825 39.3108 14.6717C39.3108 20.6682 47.6692 20.7428 47.6692 23.8925C47.6692 27.0423 40.172 26.4779 37.6977 24.4917L36.7993 29.7034C36.7993 29.7034 39.4977 31.0141 43.6204 31.0141C47.7443 31.0141 53.9657 28.8789 53.9657 23.0674C53.9657 17.0323 45.5321 16.4704 45.5321 13.8465C45.5327 11.222 51.4181 11.5592 54.0042 12.9841Z" fill="#2566AF"/>
<path d="M15.5065 19.9302L13.4731 9.49177C13.4731 9.49177 13.2272 7.40186 10.6064 7.40186H1.08198L0.970215 7.79488C0.970215 7.79488 5.54803 8.7436 9.93896 12.2982C14.1374 15.6957 15.5065 19.9302 15.5065 19.9302Z" fill="#E6A540"/>
</svg>
