<svg width="130" height="30" viewBox="0 0 130 30" fill="none" xmlns="http://www.w3.org/2000/svg">
<path d="M42.314 9.24754H46.544C47.9 9.24754 48.95 9.57754 49.694 10.2375C50.474 10.9215 50.864 11.8935 50.864 13.1535C50.864 14.3295 50.522 15.2715 49.838 15.9795C49.142 16.6875 48.122 17.0415 46.778 17.0415H45.086V21.2535H42.314V9.24754ZM45.086 11.5155V14.7735H46.076C46.76 14.7735 47.258 14.6235 47.57 14.3235C47.87 14.0235 48.02 13.6275 48.02 13.1355C48.02 12.6315 47.87 12.2415 47.57 11.9655C47.258 11.6655 46.742 11.5155 46.022 11.5155H45.086ZM62.7668 9.24754V16.3575C62.7668 17.9775 62.3228 19.2435 61.4348 20.1555C60.5468 21.0675 59.2988 21.5235 57.6908 21.5235C56.0828 21.5235 54.8348 21.0675 53.9468 20.1555C53.0588 19.2435 52.6148 17.9775 52.6148 16.3575V9.24754H55.3868V16.2855C55.3868 17.1975 55.5968 17.8695 56.0168 18.3015C56.4128 18.7215 56.9708 18.9315 57.6908 18.9315C58.4108 18.9315 58.9688 18.7215 59.3648 18.3015C59.7848 17.8695 59.9948 17.1975 59.9948 16.2855V9.24754H62.7668ZM67.6081 21.2535H64.8361L66.7621 9.24754H69.0661L72.0541 16.4295L75.0421 9.24754H77.3461L79.2721 21.2535H76.5001L75.5461 14.0895L72.5401 21.2535H71.5681L68.5621 14.0895L67.6081 21.2535ZM89.2934 21.2535L88.3934 18.9855H83.8574L82.9394 21.2535H80.0594L84.9014 9.24754H87.4394L92.1734 21.2535H89.2934ZM84.6674 16.8615H87.6374L86.1614 12.8295L84.6674 16.8615ZM97.7203 9.24754H101.392C102.784 9.24754 103.804 9.55354 104.452 10.1655C105.028 10.7175 105.316 11.4735 105.316 12.4335C105.316 13.0335 105.184 13.5435 104.92 13.9635C104.68 14.3595 104.344 14.6535 103.912 14.8455C104.584 14.9535 105.136 15.2235 105.568 15.6555C106.084 16.1715 106.342 16.8855 106.342 17.7975C106.342 18.7935 106.03 19.6035 105.406 20.2275C104.698 20.9115 103.642 21.2535 102.238 21.2535H97.7203V9.24754ZM100.456 11.4075V14.1255H100.906C101.53 14.1255 101.998 14.0115 102.31 13.7835C102.634 13.5555 102.796 13.2015 102.796 12.7215C102.796 12.2895 102.64 11.9535 102.328 11.7135C102.064 11.5095 101.584 11.4075 100.888 11.4075H100.456ZM100.456 16.1775V19.0935H101.122C102.142 19.0935 102.826 18.9315 103.174 18.6075C103.438 18.3675 103.57 18.0315 103.57 17.5995C103.57 17.1795 103.444 16.8555 103.192 16.6275C102.868 16.3275 102.208 16.1775 101.212 16.1775H100.456ZM114.402 8.97754C116.298 8.97754 117.846 9.55954 119.046 10.7235C120.294 11.9355 120.918 13.4475 120.918 15.2595C120.918 17.0475 120.294 18.5475 119.046 19.7595C117.834 20.9355 116.286 21.5235 114.402 21.5235C112.506 21.5235 110.946 20.9355 109.722 19.7595C109.134 19.2075 108.672 18.5475 108.336 17.7795C108.012 16.9995 107.85 16.1715 107.85 15.2955C107.85 14.4555 108.018 13.6275 108.354 12.8115C108.702 11.9835 109.152 11.2935 109.704 10.7415C110.88 9.56554 112.446 8.97754 114.402 8.97754ZM114.384 11.5335C113.316 11.5335 112.44 11.8755 111.756 12.5595C111.048 13.2435 110.694 14.1495 110.694 15.2775C110.694 16.3575 111.06 17.2575 111.792 17.9775C112.488 18.6375 113.346 18.9675 114.366 18.9675C115.458 18.9675 116.346 18.6255 117.03 17.9415C117.726 17.2695 118.074 16.3755 118.074 15.2595C118.074 14.1555 117.726 13.2555 117.03 12.5595C116.322 11.8755 115.44 11.5335 114.384 11.5335ZM129.45 11.5875H126.84V21.2535H124.068V11.5875H121.458V9.24754H129.45V11.5875Z" fill="#F8F8F8"/>
<ellipse cx="14.5" cy="15" rx="14.5" ry="15" fill="url(#paint0_linear_13_661)"/>
<path d="M11.4142 7.06573C11.376 7.10125 11.31 7.17942 11.2683 7.23804C11.1763 7.37126 11.1208 7.46541 10.9506 7.78161C10.8829 7.90951 10.5687 8.55434 10.4976 8.71599L10.4403 8.84389L10.2875 8.89896C10.1208 8.96113 9.87433 9.08548 9.75108 9.17074C9.70768 9.20272 9.60352 9.28443 9.52193 9.35371C9.38305 9.47273 9.36569 9.48161 9.27021 9.49227C8.94732 9.5278 8.62269 9.69655 8.45082 9.91682C8.31195 10.098 8.22688 10.3272 8.20605 10.5865L8.19563 10.718L8.04808 10.8068C7.49777 11.1354 7.01343 11.4729 6.72699 11.7305C6.60894 11.8353 6.59158 11.846 6.57075 11.8211C6.54992 11.7962 6.54645 11.7962 6.5343 11.8264C6.52215 11.8513 6.52215 11.8478 6.52735 11.8158C6.53951 11.7589 6.50826 11.7163 6.47527 11.7447C6.45618 11.7607 6.45965 11.7767 6.49437 11.8318L6.53603 11.901L6.47527 11.9934C6.33292 12.203 6.3173 12.3149 6.39021 12.5974C6.45791 12.8585 6.44403 13.0131 6.32077 13.3914C6.23397 13.6561 6.06905 14.0718 6.0326 14.1215C5.98746 14.1801 5.9892 14.3329 6.03781 14.4875C6.14023 14.8161 6.64714 15.6936 7.08287 16.2905C7.23737 16.5037 7.54638 16.8199 7.72865 16.9513C8.09495 17.2178 8.56019 17.3634 8.93169 17.3297C9.1973 17.3066 9.53061 17.2036 9.7233 17.0881C9.78232 17.0508 9.81704 17.0455 10.0462 17.0401C10.3587 17.0312 10.5722 17.0579 10.6347 17.113C10.6659 17.1432 10.6711 17.1432 10.6521 17.1183C10.6277 17.0863 10.6295 17.0863 10.6868 17.0987C10.8257 17.1272 11.0878 17.2266 11.2406 17.3084C11.5079 17.4487 11.7162 17.6086 11.9645 17.8608C12.2058 18.1095 12.3429 18.2818 12.5182 18.566C12.6189 18.7277 12.6293 18.7543 12.6484 18.8964C12.77 19.7704 12.1589 21.0121 10.9506 22.348C10.8934 22.4119 10.8482 22.4652 10.8482 22.4652C10.85 22.467 11.027 22.5682 11.2423 22.6908C11.4575 22.8116 11.6676 22.9324 11.711 22.9573C11.9783 23.11 12.6085 23.4653 12.7179 23.5257C12.789 23.5648 12.8568 23.6021 12.8654 23.6092C12.9192 23.6501 13.5529 24 13.5737 24C13.5876 24 13.6414 23.9805 13.6918 23.9574C13.7438 23.9343 13.8515 23.8845 13.9331 23.849C14.3393 23.666 14.9573 23.3285 15.301 23.1011C15.5458 22.9359 15.7263 22.8134 15.8166 22.7476C15.8652 22.7139 15.9225 22.6713 15.9468 22.6535C16.0093 22.6109 16.2593 22.4155 16.4468 22.2627C17.011 21.8062 17.6168 21.2129 18.273 20.4739C18.3911 20.3406 18.7869 19.8521 18.9431 19.6479C19.516 18.8947 20.0333 18.1042 20.568 17.1609C20.851 16.6653 21.3492 15.6634 21.5714 15.1447C21.7155 14.809 21.9863 14.1197 21.9984 14.0558C22.0071 14.0149 21.9811 13.9457 21.8787 13.7307C21.3804 12.6827 20.6635 11.8939 19.8319 11.4783C19.6757 11.4001 19.634 11.3717 19.6445 11.3521C19.6948 11.2562 19.9916 10.3183 20.1462 9.76228C20.417 8.79237 20.5576 8.06938 20.5437 7.72832C20.5367 7.53647 20.5072 7.46364 20.4083 7.39613C20.3302 7.34107 20.2833 7.34462 19.9517 7.42633C19.1584 7.61996 18.5126 7.75496 17.6394 7.90596C16.6586 8.07471 16.4485 8.12978 16.1742 8.28077C16.0319 8.35893 15.7992 8.52236 15.7506 8.57743C15.7194 8.61296 15.7194 8.61296 15.551 8.55967C14.8323 8.33762 14.1501 8.22571 13.4817 8.22571C13.0304 8.22571 12.6554 8.27012 12.3637 8.35893C12.3169 8.37315 12.2683 8.38558 12.2578 8.38558C12.2214 8.38558 11.9072 7.87576 11.803 7.64483C11.744 7.51693 11.7388 7.49383 11.737 7.32863C11.7353 7.07816 11.6902 7 11.5478 7C11.5009 7 11.468 7.01599 11.4142 7.06573ZM12.2769 10.7428C12.27 10.7713 12.2231 10.8814 12.171 10.9898C11.9575 11.4321 11.711 11.5724 11.1468 11.5742C10.9246 11.5742 10.6416 11.544 10.5861 11.512C10.5705 11.5049 10.633 11.441 10.7823 11.3184L11.001 11.1354L11.0774 11.155C11.1798 11.1816 11.2232 11.1798 11.3274 11.1443C11.428 11.1123 11.5461 10.9969 11.5634 10.9134C11.5704 10.8867 11.5773 10.8548 11.5808 10.8441C11.5843 10.8334 11.6711 10.8121 11.7752 10.7944C11.8777 10.7766 12.0287 10.7482 12.1103 10.7304C12.1919 10.7126 12.2648 10.6984 12.2735 10.6967C12.2804 10.6949 12.2821 10.7162 12.2769 10.7428Z" fill="#F8F8F8"/>
<defs>
<linearGradient id="paint0_linear_13_661" x1="-0.221528" y1="25.8691" x2="32.5824" y2="13.8379" gradientUnits="userSpaceOnUse">
<stop stop-color="#9650F1"/>
<stop offset="1" stop-color="#B984FA"/>
</linearGradient>
</defs>
</svg>
