<svg width="868" height="885" viewBox="0 0 868 885" fill="none" xmlns="http://www.w3.org/2000/svg">
<path d="M298.203 0.851382C291.13 3.99877 282.085 17.3919 264.742 50.1382C260.185 58.5758 253.248 72.3708 249.167 80.7415L241.822 95.9427L234.749 98.3535C217.474 104.246 200.879 113.89 189.386 124.872L184.625 129.359L178.504 130.162C162.317 132.104 149.191 137.595 139.942 146.1C128.72 156.547 122.939 168.801 121.919 184.471L121.511 190.967L116.342 193.847C93.762 206.436 64.1092 225.454 50.643 235.968C34.6604 248.424 25.0028 258.603 20.9222 267.174C18.9499 271.393 18.8818 271.862 19.2219 278.023C19.4259 282.442 20.2421 286.728 21.6703 291.55C24.1867 300.054 24.3907 304.943 22.3504 314.519C19.902 326.64 7.86405 359.118 2.21913 369.163C-0.0932475 373.248 -0.161258 373.65 0.110786 378.538C0.586863 385.637 3.23929 392.936 10.5165 407.066C19.902 425.347 38.7411 455.147 54.7237 477.045C71.9305 500.55 89.3413 516.153 109.133 525.93C119.198 530.885 125.251 533.028 134.705 535.037C142.798 536.778 163.201 536.845 171.363 535.104C179.932 533.296 190.406 529.68 197.751 525.997C205.436 522.113 210.129 521.242 223.391 521.242C241.89 521.242 261.273 525.394 277.596 532.76L283.513 535.439L287.73 541.935C293.17 550.104 296.911 554.792 297.523 554.189C297.863 553.921 297.863 554.055 297.591 554.524C296.979 555.596 309.969 569.324 318.607 576.69C322.891 580.373 334.385 588.878 334.997 588.878C335.269 588.878 336.426 589.547 337.582 590.418C338.738 591.288 341.05 592.695 342.751 593.632C344.451 594.503 346.151 595.574 346.627 595.976C347.035 596.378 348.259 597.047 349.348 597.516C352 598.588 358.665 609.503 359.821 614.793C361.046 619.95 361.046 640.508 359.889 647.138C358.461 655.107 354.652 668.969 351.728 676.603C346.899 689.393 342.002 699.371 331.529 717.787C319.491 738.948 296.843 768.547 274.195 792.721C268.686 798.547 263.994 803.704 263.722 804.105C263.45 804.574 289.362 819.039 334.385 843.682C373.492 865.044 406.613 883.058 407.973 883.795L410.558 885L422.732 879.844C484.282 853.727 538.146 819.508 595.004 770.422C609.966 757.497 647.712 720.398 662.131 704.393C717.696 642.785 766.8 572.203 809.851 492.112C831.206 452.334 854.874 400.972 865.756 370.703L868 364.475L864.735 357.31C838.687 299.452 795.976 253.379 747.62 230.812C743.2 228.736 739.527 227.062 739.459 226.995C739.391 226.928 742.044 218.892 745.444 209.115C763.535 157.082 778.906 101.367 785.911 62.8617C787.407 54.5579 787.747 50.6739 787.815 40.4281C787.883 30.0484 787.679 27.6377 786.727 25.6287C784.006 19.9366 779.926 16.9901 774.757 16.9901C773.261 16.9901 762.991 19.0661 751.905 21.6777C708.65 31.7226 675.053 38.2852 625.677 46.455C609.83 49.0667 592.351 52.1471 586.91 53.2186C564.059 57.9062 547.26 65.4733 531.277 78.3977L526.244 82.4156L519.035 80.1388C508.494 76.8575 490.403 72.3038 476.868 69.5582C428.581 59.8482 383.625 59.4464 348.872 68.3528C343.839 69.6252 338.942 70.8306 337.99 70.9645C336.426 71.2324 335.677 70.4288 330.373 62.3929C319.219 45.5175 313.574 35.6066 310.377 27.1689C309.017 23.6197 308.745 21.7447 308.745 14.9142C308.745 6.14167 307.929 3.06125 305.208 1.38711C302.488 -0.287036 300.992 -0.420967 298.203 0.851382ZM299.087 18.4634C299.019 23.7537 299.291 25.4278 300.924 29.7136C304.392 38.9549 312.486 53.3525 322.347 67.8841C324.456 71.0315 326.36 73.911 326.632 74.3128C326.904 74.7816 323.775 76.7236 318.063 79.4692C308.881 83.8889 300.108 89.3801 294.259 94.1347C291.198 96.6794 291.062 96.9472 292.15 98.0856C293.238 99.224 293.375 99.1571 296.775 96.6794C314.798 83.621 337.65 75.3173 366.214 71.5002C378.66 69.8261 407.565 69.8261 423.004 71.4333C442.931 73.5762 466.055 77.9289 485.778 83.2862C497.068 86.3666 514.683 91.9248 515.091 92.5944C515.295 92.8623 512.506 96.7463 508.97 101.099C501.692 110.006 494.143 120.787 494.755 121.323C494.959 121.524 496.592 120.318 498.36 118.644C503.325 113.89 521.416 98.8892 527.061 94.7373C538.69 86.2327 552.973 78.4647 564.059 74.6476C577.253 70.027 588.407 67.951 631.458 61.8572C680.017 54.9597 711.03 49.5355 751.633 40.629C761.291 38.5531 769.316 37.0129 769.52 37.1468C770.132 37.8165 768.5 52.0802 766.459 63.6652C760.27 98.6883 742.044 166.859 725.653 216.079C718.444 237.709 715.995 243.736 712.867 246.883C709.602 250.232 701.917 255.187 688.519 262.62C682.602 265.902 675.869 269.719 673.624 271.125L669.544 273.603L679.065 273.268C702.801 272.397 723.34 262.62 729.802 249.093C732.318 243.803 731.23 243.736 744.152 250.165C783.122 269.518 817.808 306.416 842.088 354.297L847.597 365.212L845.012 372.042C838.211 389.989 824.949 419.856 812.979 444.365C765.371 541.6 707.29 627.651 640.707 699.706C622.072 719.862 590.583 749.997 573.58 763.859C526.72 802.096 488.974 826.941 444.767 848.705C430.961 855.535 413.074 863.504 411.374 863.638C410.422 863.705 295.211 801.293 293.579 799.82C293.238 799.552 296.503 794.663 300.788 789.038C326.904 754.551 347.443 717.92 358.053 687.049C364.65 667.763 366.826 655.508 366.894 638.298V625.106L368.731 628.655C371.587 634.213 378.32 649.95 382.061 659.861C391.514 684.906 401.104 721.135 405.729 749.26C406.409 753.278 407.021 756.225 407.225 755.756C407.633 754.484 404.097 732.452 400.832 716.112C392.603 674.46 382.605 644.057 367.235 613.32C346.355 571.801 319.967 542.939 286.709 525.461L279.84 521.845L283.921 522.247C286.165 522.514 294.123 523.72 301.604 524.925C356.761 533.966 400.628 550.64 429.125 573.274C445.311 586.132 459.526 605.15 464.83 620.954C465.647 623.432 466.191 624.302 466.531 623.633C467.959 621.155 472.244 601.936 474.42 588.208C475.44 582.181 475.712 576.757 475.644 563.431C475.644 546.689 475.644 546.22 473.808 540.327C471.359 532.492 469.319 529.144 464.286 524.39C460.546 520.907 460.342 520.572 461.906 520.572C464.694 520.572 476.12 523.653 485.438 527.001C511.962 536.443 536.242 548.363 557.666 562.426C571.2 571.266 578.001 576.69 587.25 585.864C606.429 604.882 614.183 623.499 610.442 641.78C609.762 644.928 608.674 648.812 607.926 650.419C607.246 652.026 606.838 653.566 607.042 653.968C607.246 654.303 609.558 650.888 612.21 646.334C641.523 595.373 661.654 546.89 669.136 508.987C672.196 493.518 672.808 486.487 672.4 471.754C672.128 460.571 671.788 457.625 670.292 451.598C668.184 443.495 663.151 432.713 659.206 427.825L656.486 424.477L656.078 413.762C655.397 397.489 652.609 381.083 648.12 367.69C645.876 361.127 639.687 349.207 635.81 344.252C633.906 341.774 632.206 339.832 632.002 339.966C631.866 340.167 632.002 343.18 632.41 346.729C634.518 365.011 632.274 383.092 626.697 392.4C624.656 395.882 620.168 399.699 617.107 400.704C615.815 401.173 614.795 401.574 614.795 401.708C614.795 401.842 615.339 403.985 615.951 406.53C617.651 413.494 617.515 426.82 615.611 434.455C611.258 451.732 598.064 466.732 579.837 475.036C571.404 478.92 549.572 483.206 528.761 485.081C518.355 486.018 491.627 486.018 481.493 485.081C453.064 482.536 427.288 476.576 401.24 466.531C391.582 462.781 372.403 453.607 363.902 448.651C360.433 446.575 357.237 444.901 356.897 444.901C356.489 444.901 352.544 446.24 348.123 447.915C333.025 453.607 314.186 458.16 295.755 460.638C279.84 462.781 246.787 462.58 238.762 460.303C235.769 459.5 233.253 457.156 233.253 455.147C233.253 454.209 234.885 451.933 237.469 449.12C250.528 434.99 260.117 412.624 263.518 388.248C265.218 376.328 264.674 359.185 262.225 350.212C259.437 339.698 255.764 333.068 249.167 326.506C244.611 321.952 242.57 320.546 237.673 318.269C226.724 313.18 220.331 311.505 202.648 309.028C183.469 306.282 164.017 305.679 150.415 307.354L146.879 307.822L152.728 302.197C163.065 292.286 169.73 283.313 176.191 270.723C179.592 264.027 183.877 253.446 183.401 252.91C183.265 252.776 177.144 259.406 169.866 267.576C148.375 291.684 138.445 300.255 124.095 307.287C108.18 314.988 92.8099 316.595 75.8071 312.309C64.6533 309.496 51.5952 302.599 41.0535 293.96C35.1365 289.072 34.7964 288.67 33.6402 284.719C31.8039 278.29 31.94 273.67 34.1163 270.054C42.1416 256.66 76.4192 231.481 120.354 206.838C126.135 203.624 131.576 200.543 132.46 200.007L134.025 199.07L132.528 196.659C131.168 194.516 131.1 193.713 131.44 187.485C132.324 173.087 136.473 163.042 145.11 154.605C154.292 145.564 166.194 140.81 183.605 139.203L188.705 138.734L195.235 132.506C198.907 129.091 204.824 124.336 208.497 121.925C217.202 116.233 230.94 109.671 241.006 106.456C247.059 104.447 249.167 103.51 249.575 102.438C251.276 98.0856 268.959 62.5268 275.148 51.0087C285.145 32.3253 297.455 12.3025 298.883 12.3025C299.019 12.3025 299.155 15.1151 299.087 18.4634ZM187.957 311.706C199.791 312.577 203.804 313.514 211.557 317.331C223.527 323.157 233.865 331.26 240.87 340.435C245.359 346.194 251.14 358.114 252.976 365.212C256.172 378.002 255.288 393.94 250.664 407.735C245.971 421.463 239.374 432.044 228.628 442.959C221.079 450.727 220.127 451.263 212.849 451.933C208.565 452.334 208.293 452.267 204.688 449.924C194.078 443.026 184.829 439.879 156.4 433.517C130.148 427.624 118.654 423.807 109.609 417.847C101.991 412.825 100.291 410.682 98.3868 403.382C95.5983 393.003 94.9182 387.579 94.8502 375.926C94.8502 363.538 95.9384 357.109 99.3389 348.404C110.085 320.948 140.962 308.224 187.957 311.706ZM46.9024 321.416C61.4568 336.216 74.2428 356.506 84.8526 381.619C91.5857 397.556 92.6058 401.039 92.6738 408.07C92.6738 411.552 92.4698 415.436 92.1978 416.642C91.8577 418.048 88.3891 422.736 82.6082 429.566C77.6434 435.459 72.4746 442.29 71.1143 444.901C67.9858 450.727 65.9455 458.495 65.9455 464.522C65.9455 468.607 65.8095 469.076 64.9253 468.339C63.4971 467.134 42.7537 436.33 35.8846 425.146C24.0507 405.86 15.8894 389.454 13.985 381.284C13.1689 377.802 13.2369 377.467 14.9372 373.917C20.7181 362.399 31.5319 333.135 34.3204 321.684C35.3405 317.465 36.2927 313.581 36.4287 313.113C36.8368 311.773 39.4892 313.849 46.9024 321.416ZM107.772 420.526C117.362 427.222 129.808 431.91 160.005 440.147C184.625 446.91 195.507 451.598 202.716 458.562C207.409 463.116 209.585 467.87 209.993 474.366C210.469 482.067 208.497 488.697 202.172 501.152L196.867 511.532L191.426 514.345C176.94 521.845 156.876 525.059 140.418 522.581C123.347 520.037 103.148 509.523 87.9131 495.326C84.1045 491.777 83.6284 490.974 81.9961 485.884C79.8878 479.322 78.1875 470.147 78.1875 465.728C78.1875 461.643 79.8198 454.41 81.588 450.459C82.3362 448.718 84.5805 444.901 86.4848 442.022C91.0416 434.923 96.0744 424.477 97.9787 418.115L99.475 412.959L101.515 415.235C102.671 416.508 105.46 418.852 107.772 420.526Z" fill="#1B1B1B"/>
<path d="M711.42 66.9859C677.421 72.6409 635.807 92.4991 594.26 122.944L583.64 130.769L603.144 130.966C613.898 131.032 622.649 131.163 622.649 131.295C622.649 131.361 617.439 142.539 611.026 156.085C604.681 169.63 599.47 180.809 599.537 180.875C599.604 180.94 607.152 179.822 616.303 178.442C625.521 176.995 633.202 175.811 633.47 175.811C633.737 175.811 632.735 178.705 631.265 182.19C625.721 195.67 621.246 210.465 618.908 223.155C617.171 232.427 617.305 248.142 619.175 254.915C620.845 260.899 624.385 267.869 625.788 267.869C627.458 267.869 642.086 260.176 648.899 255.77C657.449 250.115 663.928 244.92 670.14 238.476C678.891 229.468 681.629 224.734 692.45 199.812C718.434 139.909 735.533 90.1977 735.533 74.2191C735.533 71.0628 733.864 68.4983 730.858 66.9859C728.453 65.7366 718.701 65.7366 711.42 66.9859Z" fill="#1B1B1B"/>
<path d="M358.471 162.332C338.433 165.422 317.793 174.365 293.012 190.673C289.739 192.842 278.717 200.076 268.631 206.783C248.459 220.065 242.781 223.287 231.092 228.153C226.75 229.929 223.21 231.572 223.21 231.77C223.21 232.296 239.642 236.701 248.726 238.608C285.464 246.236 314.186 243.08 336.162 228.942C347.584 221.643 354.931 214.345 369.359 195.867C378.978 183.637 385.924 176.667 391.201 174.102C395.142 172.195 395.343 172.195 409.904 171.866C421.527 171.538 425.134 171.275 427.137 170.42C429.943 169.17 430.41 168.381 428.006 168.973C426.202 169.368 415.649 167.592 402.891 164.633C398.282 163.581 392.47 162.398 389.865 162.003C383.453 161.148 364.951 161.28 358.471 162.332ZM349.788 189.423C347.584 198.3 339.501 212.438 332.488 219.736C327.144 225.326 318.928 229.14 306.905 231.507C298.155 233.216 277.849 233.019 266.961 231.112C262.553 230.323 258.745 229.468 258.478 229.205C258.211 228.942 263.287 224.471 269.767 219.342C279.92 211.188 281.79 209.939 283.259 210.333C287.801 211.386 295.951 211.451 299.09 210.399C305.636 208.229 310.312 203.363 312.048 197.051C312.583 195.012 313.184 194.158 314.253 193.895C316.858 193.237 347.717 187.779 349.053 187.714C350.055 187.648 350.189 187.977 349.788 189.423Z" fill="#1B1B1B"/>
<path d="M473.961 206.848C475.097 213.227 475.097 214.805 474.028 219.934C472.158 229.14 467.549 237.49 458.598 248.209C453.388 254.39 441.432 265.765 435.086 270.5C432.481 272.472 430.41 274.182 430.544 274.248C430.678 274.379 444.905 268.527 462.205 261.228C491.862 248.669 493.599 247.88 492.931 246.631C492.53 245.841 492.397 243.54 492.597 241.041C492.864 237.556 493.666 235.386 497.273 228.219C499.678 223.485 501.548 219.408 501.347 219.145C501.08 218.684 474.496 204.744 473.894 204.744C473.694 204.744 473.694 205.731 473.961 206.848Z" fill="#1B1B1B"/>
</svg>
